inDegrees=yes
name=ik_Xsens
DataType=double
version=3
OpenSimVersion=4.4-2022-07-23-0e9fedc
endheader
time	pelvis_tilt	pelvis_list	pelvis_rotation	pelvis_tx	pelvis_ty	pelvis_tz	hip_flexion_r	hip_adduction_r	hip_rotation_r	knee_angle_r	knee_angle_r_beta	ankle_angle_r	subtalar_angle_r	mtp_angle_r	hip_flexion_l	hip_adduction_l	hip_rotation_l	knee_angle_l	knee_angle_l_beta	ankle_angle_l	subtalar_angle_l	mtp_angle_l	lumbar_extension	lumbar_bending	lumbar_rotation	arm_flex_r	arm_add_r	arm_rot_r	elbow_flex_r	pro_sup_r	wrist_flex_r	wrist_dev_r	arm_flex_l	arm_add_l	arm_rot_l	elbow_flex_l	pro_sup_l	wrist_flex_l	wrist_dev_l
0	0	0	0	0	0.93	0	0	0	0	0	0	0	0	0	0	0	0	0	0	0	0	0	0	0	0	0	0	0	0	0	0	0	0	0	0	0	0	0	0
0.01666666666666667	0	0	0	0	0.93	0	2.297072062796848e-49	0	0	1.213285324654967e-20	-2.620770257593753e-23	0	0	0	2.297072062796848e-49	0	0	1.213285324654967e-20	-2.620770257593753e-23	0	0	0	0	0	0	-0.1994256287394201	-0.206108909919565	0.02131705449022069	0.4955581090408654	-0.2862047037985682	0	0	-0.1235136386356923	0.00952641056526066	-0.05210575940144484	0.07456020596430621	-0.01266450377948473	0	0
0.03333333333333333	-3.708655660177428e-26	-7.344709536308296e-16	3.931480006510831e-27	-5.428506500099014e-24	0.93	5.202967269714861e-23	7.716992477581146e-33	2.502501523153175e-21	0	0	-3.165416150869931e-17	3.135140078505772e-18	-8.506528849273259e-19	6.997967782507036e-16	-6.478170409608788e-22	-1.702856590915952e-31	2.154357397514917e-21	0	-3.204154209791922e-17	2.947348315284144e-19	3.145134110717397e-21	-8.866195588937824e-16	-3.708655660177428e-26	-1.959190321976376e-23	-7.657627579465461e-25	-0.3675956657077249	-0.4631187767249295	0.1092171609938275	1.04277234412316	-0.6706769748090731	3.705981912511611e-17	5.696882899454559e-15	-0.2383160603523487	0.01614169742908029	-0.1033407112547914	0.1233731808012424	-0.05749536093449247	5.163495874636704e-17	1.427719823744484e-15
0.05	-9.408807169215888e-46	-1.616420763446103e-35	7.84067264101324e-47	-1.345246525751824e-43	0.93	1.07619722060146e-42	2.297072062796848e-49	6.166155866417324e-41	0	1.213285324654967e-20	-6.816533541572448e-24	6.31414360721134e-38	-2.104714535737113e-38	1.616420763446103e-35	-1.541538966604331e-41	-3.589175098120074e-51	4.110770577611549e-41	1.213285324654967e-20	-1.694756679962761e-23	5.261786339342783e-39	6.166155866417324e-41	-2.155227684594804e-35	-9.408807169215888e-46	-4.817309270638534e-43	-1.505409147074542e-44	-0.4046683855862644	-0.5931689974302903	0.2103875631691509	1.397905280160519	-1.021552509530537	6.735086514358763e-37	1.293136610756882e-34	-0.283350917018894	0.04140757898429791	-0.1078324888015957	0.1422472794783177	-0.1000845423261064	1.010262977153814e-36	3.232841526892206e-35
0.06666666666666667	0	0	0	0	0.93	0	0	0	0	0	0	0	0	0	0	0	0	0	0	0	0	0	0	0	0	-0.4326587253276428	-0.6013070722972423	0.3104027580364248	1.633646099015395	-1.279498646796347	0	0	-0.3497208542808674	0.06279945539530882	-0.1394203158063554	0.1496380825909313	-0.1328338680419816	0	0
0.08333333333333333	0	0	0	0	0.93	0	4.594144125593695e-49	0	0	2.426570649309934e-20	5.241540515187501e-23	0	0	0	4.594144125593695e-49	0	0	2.426570649309934e-20	5.241540515187501e-23	0	0	0	0	0	0	-0.4707515709597098	-0.5754571897466618	0.4116045053183122	1.737898668363352	-1.335862858098065	0	0	-0.4035137856442506	0.07442405425680111	-0.1424624118982576	0.1580149382385847	-0.1326316432571488	0	0
0.1	0	0	0	0	0.93	0	0	0	0	0	0	0	0	0	0	0	0	0	0	0	0	0	0	0	0	-0.5112448842893738	-0.5428753762665921	0.5300586131436372	1.808256280623925	-1.320419041511187	0	0	-0.4801668662245557	0.09110612722915504	-0.1398538801717766	0.1707306618005676	-0.1339193980146779	0	0
0.1166666666666667	0	0	0	0	0.93	0	0	0	0	0	0	0	0	0	0	0	0	0	0	0	0	0	0	0	0	-0.5549717963420198	-0.5523920085476874	0.6579793531864734	1.905115831174667	-1.372314504792954	0	0	-0.5713989316547596	0.09169478032469189	-0.1872877202573061	0.2167099819624245	-0.07619402709674093	0	0
0.1333333333333333	0	0	0	0	0.93	0	0	0	0	0	0	0	0	0	0	0	0	0	0	0	0	0	0	0	0	-0.5974527689336256	-0.5479908686578421	0.7812294816890749	2.025224995329302	-1.458176728794106	0	0	-0.6685791841912856	0.0797474402441579	-0.2211769351816925	0.279326525877061	-0.04089390598352144	0	0
0.15	9.823786599054849e-26	-4.848123263721081e-19	-2.205688401073384e-25	-5.154302023935962e-19	0.93	4.81482486096809e-35	-9.240938363122053e-25	-2.859064236203301e-24	-2.771955208995212e-15	0	-1.03515984798456e-17	6.101621679871172e-21	-8.911199036889945e-23	1.255435206363921e-15	1.194500054595409e-14	1.490004261101841e-14	-6.061163267969696e-15	0	-1.0351592514765e-17	6.946079142256607e-22	6.828208535906958e-22	-8.152434472733143e-17	-7.731722239834887e-16	1.958983793355775e-15	-1.989650346589239e-14	-0.6434117246504469	-0.5147675443852094	0.9450503219438835	2.12456822274798	-1.590232547205403	5.921008233077599e-22	-7.993082551545215e-20	-0.7768421204690661	0.06350143854660999	-0.293592744349819	0.3479831415332725	0.001358672465684967	-2.40484713078477e-21	-4.759744322727781e-21
0.1666666666666667	0	0	0	0	0.93	0	0	0	0	0	-4.70197740328915e-38	0	0	0	0	0	0	0	-4.70197740328915e-38	0	0	0	0	0	0	-0.7403987478806388	-0.442754011509878	1.109216240165668	2.228914947179746	-1.665150340781817	0	0	-0.8619635181770824	0.06932815092367878	-0.3078314302140007	0.3957787806250396	0.01625522320690556	0	0
0.1833333333333333	0	0	0	0	0.93	0	0	0	0	4.74623651339999e-41	0	0	0	0	0	0	0	4.74623651339999e-41	0	0	0	0	0	0	0	-0.8916064077386854	-0.3901755068323752	1.289178135152871	2.418344130240529	-1.743505220375689	0	0	-0.9411620163445343	0.08316069382521067	-0.2855741775550668	0.4481199229630247	-0.03884037880359331	0	0
0.2	0	0	0	0	0.93	0	0	0	0	0	0	0	0	0	0	0	0	0	0	0	0	0	0	0	0	-1.076451872779572	-0.3590514037180323	1.395921684751432	2.639859701976895	-1.710921993393698	0	0	-0.9882127113875963	0.1069874946015399	-0.206201499445375	0.4812984828696125	-0.1444128618437559	0	0
0.2166666666666667	0	0	0	0	0.93	0	0	0	0	0	0	0	0	0	0	0	0	0	0	0	0	0	0	0	0	-1.237196196412327	-0.3569708050600873	1.411381803722378	2.911644480588305	-1.594312244739558	0	0	-1.024081227450853	0.1374230642605541	-0.1035887281231113	0.5144358556849897	-0.2590069352288653	0	0
0.2333333333333333	0	0	0	0	0.93	0	0	0	0	0	0	0	0	0	0	0	0	0	0	0	0	0	0	0	0	-1.314194554927206	-0.3574346135635049	1.505445700114644	3.145638845988761	-1.529528625204289	0	0	-1.068676741306219	0.1676323315241476	-0.03711584996650167	0.5676928276490554	-0.3072327676752113	0	0
0.25	6.134045238589702e-29	9.03579303596441e-24	3.047599707401283e-29	1.316463337778774e-26	0.93	1.601879618088136e-24	-5.38806921148701e-34	-1.614788727771868e-22	0	0	-3.373418258613286e-18	1.87133852795555e-22	2.090841848041082e-22	1.618551105747685e-22	-4.953391175343662e-23	1.08246310458774e-32	9.947023157559138e-24	0	-3.386368749207101e-18	3.364458991274903e-19	2.372447676951996e-22	-3.538058473075605e-22	6.134045238589702e-29	4.621962845728105e-25	-1.917790430797955e-24	-1.306073152998573	-0.3595548737273317	1.759023721539366	3.286830012719204	-1.560753465595758	1.873098083607345e-20	-1.563893584000678e-22	-1.126249959299934	0.1928989331567615	0.02460655882285137	0.6291035532407581	-0.3453894703311408	3.962127945852061e-23	-1.96268630328597e-23
0.2666666666666667	3.480536848291448e-12	-2.953861577214134e-13	-1.581515828431053e-12	-3.593525135653325e-31	0.93	8.299788990113008e-31	-5.315686701080571e-28	-4.011035448820605e-16	-2.579453106131745e-27	2.576047686823834e-05	4.496051382532061e-07	-7.749794217075097e-16	-1.015293729994813e-21	3.097380996069699e-23	-4.687777417648031e-28	7.942411554971435e-17	-4.4033496548677e-18	2.517722440099685e-05	4.394254623353727e-07	-2.138437222740647e-21	-1.167036301244471e-28	-1.230579636812233e-24	3.4805009721017e-12	-2.952968261484695e-13	-1.582130628261571e-12	-1.166766183090849	-0.3468421468423736	2.064490508767372	3.280825423410582	-1.596323667620758	-3.516753598864975e-28	3.232570861037008e-28	-1.190603193853634	0.2397130827589273	0.03975286463211635	0.7105715919042196	-0.3388448042342272	3.500808917586963e-29	-1.443588803526758e-28
0.2833333333333333	0	0	0	0	0.93	0	0	0	0	0	-1.617881276338001e-41	0	0	0	0	0	0	0	-6.584769085565575e-41	0	0	0	0	0	0	-0.9327835982034079	-0.3309766965189423	2.407739662406818	3.124531660876838	-1.654971561943418	0	0	-1.272144786716863	0.2732093537761516	0.0134793076577733	0.8122263786288939	-0.2990723013643428	0	0
0.3	0	0	0	0	0.93	0	0	0	0	0	-1.763241526233431e-38	0	0	0	0	0	0	0	-1.763241526233431e-38	0	0	0	0	0	0	-0.6304634168946369	-0.3408264859533693	2.625646979232211	2.921534721675902	-1.548499634867204	0	0	-1.32721622768941	0.3345424387305632	0.0257298721970654	0.8802780913592484	-0.3061035593408348	0	0
0.3166666666666667	1.025649751057888e-26	2.150212499893028e-18	-1.050443210161868e-26	-3.656602399146638e-25	0.93	-4.901582797248165e-25	-3.146632419508414e-33	2.87402588975689e-23	0	0	-2.305566505883721e-17	-1.673892804722619e-20	-5.74174377774511e-23	-3.511549643874511e-17	5.679792378243202e-23	1.880242371236015e-31	-3.571002739724239e-23	0	-2.301559716672274e-17	-1.846693648103264e-24	-5.036614921535646e-16	2.432326793614465e-17	1.544974689832642e-26	1.180678029791697e-23	-8.523575077551576e-25	-0.234619018845087	-0.3608528429062762	2.70575615259045	2.622129261560347	-1.349922104917525	-1.158153581289998e-20	1.198489384544124e-18	-1.367017064722648	0.4114522575031126	0.07526362779514451	0.9347044301161217	-0.3636488835991702	3.642695098836256e-19	1.110204067698396e-18
0.3333333333333333	3.13105020093699e-26	1.305071615590135e-18	1.847592984959856e-27	-2.675412344213297e-21	0.93	5.439894733421383e-21	-5.428858175771177e-34	1.738339450394963e-26	1.472130028628271e-26	0	-6.831173926100097e-18	1.399920584855014e-20	-3.826502009463626e-22	1.981974038742479e-18	6.007618954808139e-15	4.219705182676556e-15	9.414438973294826e-16	0	-6.831177839259433e-18	-2.216720116585803e-20	3.229433308487085e-21	-3.708532133256797e-18	-3.321022112062253e-16	-6.811344703341007e-16	1.841144634776243e-16	0.2134072878765548	-0.3678209949899764	2.63739069944945	2.291695683291289	-1.179141955653548	9.632143682607886e-19	3.278422318034784e-21	-1.391457935322169	0.4965397674617538	0.1430039773675216	0.9583028327049	-0.4736036066649503	-7.547102503273278e-19	4.67678884375457e-18
0.35	6.272538112810592e-46	3.15707180360567e-38	3.92033632050662e-47	-6.887662211849341e-41	0.93	1.377532442369868e-40	2.297072062796848e-49	3.136269056405296e-46	3.136269056405296e-46	1.213285324654967e-20	-3.185707528765927e-23	3.28861646208924e-40	-7.707694833021655e-42	4.209429071474227e-38	1.293136610756882e-34	8.620910738379216e-35	2.155227684594804e-35	1.213285324654967e-20	-3.381365495573062e-23	-4.932924693133859e-40	6.166155866417324e-41	-8.418858142948453e-38	-8.082103817230515e-36	-1.616420763446103e-35	4.041051908615258e-36	0.6375881377879282	-0.3652772305383417	2.497165843030983	1.976431033213125	-0.9312452065796004	2.104714535737113e-38	8.221541155223099e-41	-1.402490622488733	0.5753313397263435	0.201580461261891	0.9660794202357025	-0.5842124017142133	-1.578535901802835e-38	8.418858142948453e-38
